<?xml version='1.0' encoding='UTF-8'?>
<svg xmlns="http://www.w3.org/2000/svg" xmlns:xlink="http://www.w3.org/1999/xlink" height="16px" viewBox="0 0 500 500" width="16px" namespace="http://www.w3.org/2000/svg">
  <linearGradient id="linear-gradient" gradientUnits="userSpaceOnUse" x1="73.223" x2="426.777" y1="73.223" y2="426.777">
    <stop offset="0" stop-color="#57cdff"/>
    <stop offset="1" stop-color="#0096d6"/>
  </linearGradient>
  <linearGradient id="linear-gradient-2" gradientUnits="userSpaceOnUse" x1="318.333" x2="351.708" y1="235.288" y2="268.663">
    <stop offset="0" stop-color="#007db3"/>
    <stop offset="1" stop-color="#0096d6"/>
  </linearGradient>
  <linearGradient id="linear-gradient-3" x1="140.944" x2="179.211" xlink:href="#linear-gradient-2" y1="264.919" y2="303.186"/>
  <linearGradient id="linear-gradient-4" x1="170.812" x2="429.573" xlink:href="#linear-gradient-2" y1="165.227" y2="423.988"/>
  <g id="Layer_2" data-name="Layer 2">
    <g id="_22.Circle_Solid_Gradient_Shadow" data-name="22.Circle_Solid_Gradient_Shadow">
      <g id="_64" data-name="64">
        <rect fill="url(#linear-gradient)" height="500" rx="250" width="500"/>
        <path d="m346.06 274.31h-44.16l44.16-66.75z" fill="url(#linear-gradient-2)"/>
        <path d="m160.78 310.32q-12.885 0-19.85-7.1t-6.96-19.71q0-12.345 7.49-19.06 7.485-6.69 18.79-6.7 12.345 0 18.92 7.1t6.57 19.45q0 12.09-6.7 19.05t-18.26 6.97z" fill="url(#linear-gradient-3)"/>
        <path d="m499.24 269.55a250.05 250.05 0 0 1 -219.51 228.7l-166.15-166.15q16.575 16.32 49.04 16.32 20.235 0 35.08-8.14a55.069 55.069 0 0 0 22.6-22.61q7.755-14.445 7.76-33.64 0-29.16-15.64-45.46t-41.39-16.3a54.7 54.7 0 0 0 -24.05 5.26 39.261 39.261 0 0 0 -16.69 14.45q.255-28.11 6.83-41.13 6.57-13 21.55-13 9.72 0 14.98 4.86t7.36 14.58h41.79a69 69 0 0 0 -8.28-27.59 50.177 50.177 0 0 0 -6.98-9.7l71.7 71.7-24.64 35.24v36.27h88.3v34.16h44.94v-34.16h21.55v-38.9h-21.55v-116.16z" fill="url(#linear-gradient-4)"/>
        <g fill="#fff">
          <path d="m173.654 192.707q-5.261-4.86-14.98-4.862-14.98 0-21.551 13.009t-6.833 41.13a39.24 39.24 0 0 1 16.689-14.454 54.657 54.657 0 0 1 24.047-5.257q25.753 0 41.392 16.3t15.638 45.466q0 19.188-7.753 33.64a55.079 55.079 0 0 1 -22.6 22.6q-14.851 8.149-35.084 8.147-40.476 0-56.243-25.361t-15.77-72.934q0-49.929 16.688-74.244t53.483-24.31q19.71 0 33.245 7.753a52.7 52.7 0 0 1 20.5 20.368 68.973 68.973 0 0 1 8.278 27.6h-41.787q-2.107-9.725-7.359-14.591zm-32.194 71.748q-7.491 6.7-7.49 19.054 0 12.613 6.964 19.711t19.843 7.095q11.561 0 18.265-6.964t6.7-19.054q0-12.35-6.57-19.448t-18.923-7.1q-11.3.004-18.789 6.706z"/>
          <path d="m254.6 313.206v-36.267l83.049-118.792h50.2v116.163h21.55v38.9h-21.55v34.166h-44.949v-34.17zm91.459-105.65-44.159 66.754h44.153z"/>
        </g>
      </g>
    </g>
  </g>
</svg>
