<?xml version='1.0' encoding='UTF-8'?>
<svg xmlns="http://www.w3.org/2000/svg" id="Layer_1" enable-background="new 0 0 512 512" height="16px" viewBox="0 0 512 512" width="16px" namespace="http://www.w3.org/2000/svg">
  <g>
    <g clip-rule="evenodd" fill-rule="evenodd">
      <path d="m168.584 0h173.368l153.091 153.091v293.98c0 35.698-29.231 64.929-64.929 64.929h-261.53c-35.698 0-64.929-29.231-64.929-64.929v-382.142c0-35.698 29.231-64.929 64.929-64.929z" fill="#e5252a"/>
      <path d="m341.953 0 153.091 153.091h-136.559c-9.1 0-16.532-7.432-16.532-16.532z" fill="#b71d21"/>
      <path d="m31.206 218.02h352.618c7.842 0 14.25 6.408 14.25 14.25v129.36c0 7.842-6.408 14.25-14.25 14.25h-352.618c-7.842 0-14.25-6.408-14.25-14.25v-129.36c0-7.842 6.409-14.25 14.25-14.25z" fill="#b71d21"/>
    </g>
    <path d="m105.25 279.262v35.346c0 10.109 8.237 18.332 18.361 18.332 10.108 0 18.332-8.224 18.332-18.332 0-4.565 3.701-8.266 8.266-8.266s8.266 3.701 8.266 8.266c0 19.225-15.64 34.864-34.864 34.864-19.24 0-34.893-15.64-34.893-34.864v-35.346c0-19.225 15.653-34.864 34.893-34.864 19.224 0 34.864 15.64 34.864 34.864 0 4.565-3.701 8.266-8.266 8.266s-8.266-3.701-8.266-8.266c0-10.109-8.224-18.332-18.332-18.332-10.124 0-18.361 8.224-18.361 18.332zm221.034 0v35.346c0 19.225-15.64 34.864-34.864 34.864h-26.598c-4.565 0-8.266-3.701-8.266-8.266v-88.543c0-4.565 3.701-8.266 8.266-8.266h26.598c19.224.001 34.864 15.641 34.864 34.865zm-16.532 0c0-10.109-8.224-18.332-18.332-18.332h-18.332v72.011h18.332c10.108 0 18.332-8.224 18.332-18.332zm-66.162 60.102c1.018 4.451-1.765 8.883-6.215 9.901-.62.141-1.24.21-1.85.21-3.77 0-7.174-2.595-8.05-6.425l-5.912-25.852h-31.664l-5.912 25.852c-1.017 4.451-5.451 7.23-9.901 6.216-4.451-1.018-7.233-5.451-6.215-9.901l20.248-88.543c.859-3.758 4.203-6.423 8.058-6.423h19.107c3.855 0 7.199 2.665 8.058 6.423zm-25.808-38.698-9.087-39.736h-5.929l-9.087 39.736z" fill="#fff"/>
  </g>
</svg>
