<?xml version='1.0' encoding='UTF-8'?>
<svg xmlns="http://www.w3.org/2000/svg" xmlns:svg="http://www.w3.org/2000/svg" xmlns:rdf="http://www.w3.org/1999/02/22-rdf-syntax-ns#" xmlns:dc="http://purl.org/dc/elements/1.1/" xmlns:cc="http://creativecommons.org/ns#" id="svg2" version="1.1" viewBox="0 0 243 243" width="16px" height="16px" namespace="http://www.w3.org/2000/svg">
  <!-- Generator: Adobe Illustrator 29.1.0, SVG Export Plug-In . SVG Version: 2.1.0 Build 142)  -->
  <defs>
    <style>
      .st0 {
        fill: #a90533;
      }
    </style>
  </defs>
  <g id="g8">
    <path id="path10" class="st0" d="M38,168.7c-18.8-19.9-29.8-47.5-29.8-80.3,0-29,9.1-54,24.8-73h0S0,15.4,0,15.4v153.3h38Z"/>
    <path id="path12" class="st0" d="M211.7,168.7c8.1-8.7,15.4-18.9,21.9-30.6l-36.5-18.2c-12.8,20.8-31.6,40-57.5,40.1-37.7-.1-52.5-32.4-52.5-73.9h141c.2-4.7.2-6.9,0-9.1.9-24.7-5.6-45.5-17.5-61.6h0s31.7,0,31.7,0v153.3h-30.7,0s0,0,0,0Z"/>
    <path id="path14" class="st0" d="M89.4,50.5c1.6-18.8,16.4-31.4,33.8-31.5,17.5,0,30.1,12.7,30.6,31.5h-64.3Z"/>
  </g>
  <g id="g16">
    <path id="path18" d="M20.1,194.6v-6.4H.5v37.9h19.6v-6.4H7.8v-10h11.9v-6.4H7.8v-8.7h12.3Z"/>
    <path id="path20" d="M53.4,210.1c4.9-.7,7.6-5.6,7.8-10.5-.2-8.1-5.4-11.4-12.8-11.4h-10v37.9h7.3v-15.1l9.1,15.1h9.1l-10.5-16h0ZM45.6,194.2h.9c4,.1,7,1.1,6.8,5.9.1,4.5-2.8,5.7-6.8,5.5h-.9v-11.4h0Z"/>
    <path id="path22" d="M86.7,188.2h-7.3v37.9h17.8v-6.4h-10.5v-31.5h0Z"/>
    <path id="path24" d="M134.6,218.3l3.2,7.8h7.8l-14.1-38.8h-5.9l-15.1,38.8h7.8l3.2-7.8h13.2,0ZM132.8,212.4h-9.1l4.1-14.1,5,14.1h0Z"/>
    <path id="path26" d="M159.2,226.1h7.8v-25.5l20.1,26.5h5.5v-38.8h-7.8v25.5l-20.1-26.5h-5.5v38.8h0Z"/>
    <path id="path28" d="M224.5,206v5.9h8.2c-.2,4.8-4.1,8.8-8.7,8.7-7.3.1-10.9-6.9-10.9-13.2,0-6.3,3.6-13.6,10.9-13.7,3.8.1,7.1,2.7,8.7,5.9l6.4-3.2c-2.8-5.9-8.5-9.2-15.1-9.1-11.3,0-18.6,9.3-18.7,20.1.1,10.5,7.2,19.9,18.2,20.1,11.9-.1,17.5-9.7,17.3-20.5v-.9h-16.4Z"/>
  </g>
</svg>
