<?xml version='1.0' encoding='UTF-8'?>
<svg xmlns="http://www.w3.org/2000/svg" height="16px" viewBox="0 0 64 64" width="16px" namespace="http://www.w3.org/2000/svg">
  <g id="Icons">
    <g>
      <path d="m47 26v4c0 .551-.449 1-1 1h-28c-.551 0-1-.449-1-1v-4h-2v4c0 1.654 1.346 3 3 3h13v5h2v-5h13c1.654 0 3-1.346 3-3v-4z" fill="#c80a50"/>
      <g>
        <circle cx="16" cy="16" fill="#0a5078" r="12"/>
      </g>
      <g>
        <circle cx="48" cy="16" fill="#00a0c8" r="12"/>
      </g>
      <g>
        <g>
          <path d="m47 28.958c.33.027.663.042 1 .042s.67-.015 1-.042v-2.958h-2z" fill="#a00028"/>
        </g>
        <g>
          <path d="m15 28.958c.33.027.663.042 1 .042s.67-.015 1-.042v-2.958h-2z" fill="#a00028"/>
        </g>
      </g>
      <g>
        <circle cx="32" cy="48" fill="#fab400" r="12"/>
      </g>
      <g>
        <g>
          <path d="m24 23c0-1.657-1.343-3-3-3h-10c-1.657 0-3 1.343-3 3v1.943c2.123 1.9 4.926 3.057 8 3.057s5.877-1.156 8-3.057z" fill="#fab400"/>
        </g>
        <g>
          <path d="m16 22c-1.105 0-2-.895-2-2v-3h4v3c0 1.105-.895 2-2 2z" fill="#d2aa82"/>
        </g>
        <g>
          <path d="m17 18h-2c-1.657 0-3-1.343-3-3v-3c0-1.105.895-2 2-2h4c1.105 0 2 .895 2 2v3c0 1.657-1.343 3-3 3z" fill="#f0c8a0"/>
        </g>
        <g>
          <path d="m18 10h-4c-1.105 0-2 .895-2 2v-2c0-1.105.895-2 2-2h4c1.105 0 2 .895 2 2v2c0-1.105-.895-2-2-2z" fill="#c80a50"/>
        </g>
      </g>
      <g>
        <g>
          <path d="m50 8h-4c-2.209 0-4 1.791-4 4v5c0 .552.448 1 1 1h10c.552 0 1-.448 1-1v-5c0-2.209-1.791-4-4-4z" fill="#0a5078"/>
        </g>
        <g>
          <path d="m46 17h4v3h-4z" fill="#d2aa82"/>
        </g>
        <g>
          <path d="m56 24c0-2.209-1.791-4-4-4h-8c-2.209 0-4 1.791-4 4v.943c2.123 1.9 4.926 3.057 8 3.057s5.877-1.156 8-3.057z" fill="#c80a50"/>
        </g>
        <g>
          <path d="m48 24c-2.209 0-4-1.791-4-4h8c0 2.209-1.791 4-4 4z" fill="#d2aa82"/>
        </g>
        <g>
          <path d="m49 18h-2c-1.657 0-3-1.343-3-3v-3c0-1.105.895-2 2-2h1c0 1.105.895 2 2 2h3v3c0 1.657-1.343 3-3 3z" fill="#f0c8a0"/>
        </g>
      </g>
      <g>
        <g>
          <path d="m34 50h-4c-1.105 0-2-.895-2-2v-4h8v4c0 1.105-.895 2-2 2z" fill="#f0c8a0"/>
        </g>
        <g>
          <path d="m33 40h-2c-1.657 0-3 1.343-3 3v1h8v-1c0-1.657-1.343-3-3-3z" fill="#0a5078"/>
        </g>
        <g>
          <path d="m30 50h4v2h-4z" fill="#d2aa82"/>
        </g>
        <g>
          <path d="m38 56c0-2.209-1.791-4-4-4h-4c-2.209 0-4 1.791-4 4v2.394c1.765 1.021 3.814 1.606 6 1.606s4.235-.585 6-1.606z" fill="#00a0c8"/>
        </g>
      </g>
    </g>
  </g>
</svg>
