<?xml version='1.0' encoding='UTF-8'?>
<svg xmlns="http://www.w3.org/2000/svg" height="16px" viewBox="-1 0 59 59" width="16px" namespace="http://www.w3.org/2000/svg">
  <g id="Page-1" fill="none" fill-rule="evenodd">
    <g id="027---Keys" transform="translate(-1 -1)">
      <path id="Path" d="m26.81 31.71h-.01l-19.37 11.61c-.17540552.1034032-.38714171.1253069-.58.06l-5.37-1.79c-.33184594-.1091633-.53240905-.44628-.47-.79l.84-4.94c.09456202-.6052905.4587099-1.1349601.99-1.44.38541084-.2383518.83966025-.3404699 1.29-.29l2.25.23c.3471482.0349328.66701999-.1911099.75-.53l.44-1.75c.0926687-.3366183.41209728-.5593777.76-.53l2.33.24c.3553583.0369839.6837211-.1932965.77-.54.18-.75.39-1.69.44-1.79.1104227-.3129975.4195301-.5108262.75-.48l2.33.24c.3485806.040459.6717508-.1879146.75-.53l.53-2.05c.0405635-.18212.152156-.3405095.31-.44l5.16-3.08c-.9301748-6.4014191 2.9876665-12.5128524 9.1929025-14.33999151 6.205236-1.82713916 12.809806 1.18595757 15.4970975 7.06999151.3481049.7462746.6162646 1.5272895.8 2.33z" fill="#95a5a5"/>
      <path id="Path" d="m6.766 40.056c-.44857801-.0008849-.84168039-.3003748-.96161965-.732622-.11993927-.4322471.06263526-.891475.44661965-1.123378l15.993-9.585c.4731968-.2752901 1.0797899-.1189187 1.3609263.3508282s.1322985 1.0782323-.3339263 1.3651718l-15.993 9.583c-.15473939.0926367-.33165102.1417021-.512.142z" fill="#7f8c8d"/>
      <path id="Path" d="m50.6 35.22c-2.9286551 4.9537877-8.7718656 7.3847262-14.35 5.97l-13.52 18.14c-.1220333.1672116-.3132271.2701621-.52.28l-5.64.39c-.3496226.0279467-.6659571-.2071668-.74-.55l-1.1-4.89c-.1323626-.5952432-.0011195-1.2186477.36-1.71.2691962-.366998.6525607-.634298 1.09-.76l2.16-.64c.3438701-.0971213.5593936-.4376485.5-.79l-.25-1.77c-.0519889-.3508228.1606807-.6868406.5-.79l2.24-.66c.3409936-.1009524.5547001-.4386086.5-.79-.11-.76-.28-1.7-.26-1.82-.0216189-.3295211.1849325-.6310861.5-.73l2.24-.66c.3438701-.0971213.5593936-.4376485.5-.79l-.3-2.09c-.0228755-.1834707.0234766-.3688791.13-.52l3.59-4.81c-.6463089-1.0959119-1.1249447-2.2823893-1.42-3.52-1.329806-5.3295553.8388444-10.9191855 5.4151227-13.9573133 4.5762783-3.0381279 10.569418-2.8669973 14.9648773.4273133.3918105.287048.7658319.5976193 1.12.93 4.4297405 4.1773675 5.3801863 10.863692 2.29 16.11z" fill="#f0c419"/>
      <path id="Path" d="m20.488 56.645c-.3787721 0-.7250352-.2140024-.8944272-.5527864s-.132836-.744196.0944272-1.0472136l12.868-17.254c.2143593-.2858125.5649147-.4355548.9196153-.3928204.3547005.0427344.6596588.2714532.8.6000001.1403412.3285468.0947441.7070078-.1196153.9928203l-12.865 17.251c-.1888564.2537832-.4866575.40324-.803.403z" fill="#b19046"/>
      <circle id="Oval" cx="42.401" cy="24.586" fill="#95a5a5" r="3"/>
      <path id="Path" d="m58 13.5c-.0128835 4.4244383-2.3529129 8.5156911-6.16 10.77-.0478472.0305205-.0979989.0572681-.15.08-1.8829572 1.0832584-4.0176806 1.6522881-6.19 1.65h-.13c-.11 0-.21 0-.32-.01-1.9767565-.0640713-3.908547-.6062078-5.63-1.58.0176101-.474755.1589432-.9366728.41-1.34.043197-.1008739.1004292-.1951388.17-.28.0583065-.083554.1253518-.1606561.2-.23.07.04.14.08.22.12 1.5057096.8398406 3.1961137 1.2933636 4.92 1.32h.16c1.871359.0031062 3.7090262-.4977618 5.32-1.45.0256141-.0132174.0491898-.0300572.07-.05 3.784891-2.2597376 5.7536505-6.6443327 4.9277039-10.9744165-.8259466-4.33008389-4.2704388-7.68212238-8.6213871-8.38998031s-8.6803686 1.3794389-10.8363168 5.22439681c-.7254945-.09977564-1.4579474-.13991004-2.19-.12 2.4660074-5.32155216 8.3016837-8.21140753 14.0289814-6.94722011 5.7272978 1.26418743 9.8042561 6.34206032 9.8010186 12.20722011z" fill="#bdc3c7"/>
    </g>
  </g>
</svg>
