<?xml version='1.0' encoding='UTF-8'?>
<svg xmlns="http://www.w3.org/2000/svg" enable-background="new 0 0 512 512" height="16px" viewBox="0 0 512 512" width="16px" namespace="http://www.w3.org/2000/svg">
  <g id="_x34_5_x2C__Lua_x2C__fromat_x2C__type_x2C__archive_x2C__file_x2C__file_and_folder">
    <g>
      <g>
        <g>
          <path d="m1 461v-460h300v460c-9.259 0-293.52 0-300 0z" fill="#6354b1"/>
          <path d="m401 511h-350v-460h274.143l31.357 50 44.5 25.858z" fill="#fbf3f3"/>
          <path d="m511 431h-400v-180h400z" fill="#6354b1"/>
          <g fill="#ece6f2">
            <path d="m111 101h170v20h-170z"/>
            <path d="m111 151h170v20h-170z"/>
            <path d="m111 201h240v20h-240z"/>
            <path d="m325.143 51v75.858h75.857z"/>
          </g>
          <path d="m211.33 291h-20v100h50v-20h-30z" fill="#fff"/>
          <path d="m321.33 351c0 11.028-8.972 20-20 20s-20-8.972-20-20v-60h-20v60c0 22.056 17.944 40 40 40s40-17.944 40-40v-60h-20z" fill="#fff"/>
          <path d="m411.172 394.13 18.995-6.26-29.663-90-2.279-6.87h-14.467l-31.927 96.87 18.995 6.26 7.623-23.13h25.098zm-26.129-43.13 5.957-18.075 5.957 18.075z" fill="#fff"/>
        </g>
      </g>
    </g>
  </g>
</svg>
