<?xml version='1.0' encoding='UTF-8'?>
<svg xmlns="http://www.w3.org/2000/svg" xmlns:xlink="http://www.w3.org/1999/xlink" id="Layer_1" version="1.1" viewBox="0 0 2500 2500" width="16px" height="16px" namespace="http://www.w3.org/2000/svg">
  <!-- Generator: Adobe Illustrator 29.1.0, SVG Export Plug-In . SVG Version: 2.1.0 Build 142)  -->
  <defs>
    <style>
      .st0 {
        fill: url(#linear-gradient1);
      }

      .st1 {
        fill: #49d;
      }

      .st2 {
        fill: url(#linear-gradient);
      }
    </style>
    <linearGradient id="linear-gradient" x1="955.4" y1="1524.2" x2="953.6" y2="1518.4" gradientTransform="translate(-78633.6 -126350.1) scale(83.7)" gradientUnits="userSpaceOnUse">
      <stop offset="0" stop-color="#512"/>
      <stop offset=".2" stop-color="#523"/>
      <stop offset=".4" stop-color="#534"/>
      <stop offset=".5" stop-color="#645"/>
      <stop offset=".7" stop-color="#568"/>
      <stop offset=".8" stop-color="#29d"/>
    </linearGradient>
    <linearGradient id="linear-gradient1" x1="968.3" y1="1540.2" x2="950.3" y2="1544.6" gradientTransform="translate(-78633.6 130382.2) scale(83.7 -83.7)" gradientUnits="userSpaceOnUse">
      <stop offset="0" stop-color="#c33"/>
      <stop offset=".2" stop-color="#de5239"/>
      <stop offset=".3" stop-color="#f06e3e"/>
      <stop offset=".4" stop-color="#fa8042"/>
      <stop offset=".5" stop-color="#fe8643"/>
      <stop offset=".6" stop-color="#fa7f42"/>
      <stop offset=".7" stop-color="#ef6c3e"/>
      <stop offset=".8" stop-color="#dc4c37"/>
      <stop offset=".9" stop-color="#cf3633"/>
    </linearGradient>
  </defs>
  <path class="st1" d="M78.5,1378.4l666.9-269.5c67.7-89.5,143.9-172.1,227.6-246.9,55.2-29.3,159-13.4,348.9-249.4,184.1-230.1,242.7-426.8,328.9-426.8,136.4,0,236.8,294.6,389.1,740.6,108.6,340.7,236,675.1,381.6,1001.7-159-148.1-294.6-307.9-449.4-303.8-143.9,3.3-303.8,174.1-478.7,393.3-138.9,175.7-323,296.2-395,293.7,0,0-185.8-525.5-341.4-610.9-65.5-26.8-139.9-20.5-200,16.7l-478.7-339.7v.8Z"/>
  <path class="st2" d="M1568,246.3c-56.1,75.3-123.8,213.4-246,366.5-190,236-292.9,220.1-348.9,249.4-84.1,74.3-160.4,157-227.6,246.9l276.1,201.7c234.3-319.7,359.8-666.1,457.7-890.4,24.5-60.5,54.2-118.7,88.7-174.1h0Z"/>
  <path class="st0" d="M1651.7,186c-182.4,0-307.1,960.7-980.7,1497,189.1-31,353.1,438.5,428.4,628.4,334.7-56.9,602.5-697.1,872.8-687,154.8,5.9,290.4,155.6,449.4,303.8-363.2-763.2-533-1742.2-769.9-1742.2Z"/>
</svg>
