<?xml version='1.0' encoding='UTF-8'?>
<svg xmlns="http://www.w3.org/2000/svg" id="Layer_1" enable-background="new 0 0 512 512" height="16px" viewBox="0 0 512 512" width="16px" namespace="http://www.w3.org/2000/svg">
  <path d="m399.662 169.131-56.803-56.806c-2.813-2.813-6.629-4.394-10.605-4.394-3.979 0-7.795 1.58-10.607 4.394l-305.5 305.502c-21.51 21.506-21.512 56.503-.003 78.017 10.419 10.418 24.272 16.156 39.01 16.156h.001c14.735 0 28.591-5.738 39.009-16.156l305.5-305.5c5.856-5.858 5.857-15.355-.002-21.213z" fill="#ff8a3c"/>
  <path d="m55.153 512c14.736 0 28.591-5.738 39.009-16.156l305.5-305.5c5.857-5.856 5.857-15.354 0-21.213l-28.402-28.404-355.116 355.117c10.419 10.418 24.272 16.156 39.009 16.156z" fill="#e56705"/>
  <path d="m495.832 16.165c-10.42-10.424-24.275-16.165-39.014-16.165-14.736 0-28.59 5.739-39.006 16.159l-39.363 39.361c-2.813 2.813-4.395 6.628-4.395 10.606s1.58 7.794 4.395 10.606l56.803 56.803c2.93 2.93 6.768 4.394 10.605 4.394s7.678-1.464 10.605-4.393l39.369-39.361c10.418-10.417 16.154-24.27 16.154-39.007.001-14.737-5.735-28.591-16.153-39.003z" fill="#ff8a3c"/>
  <path d="m495.832 16.165-.004-.005-88.979 88.975 28.402 28.401c2.928 2.93 6.768 4.394 10.605 4.394s7.678-1.464 10.605-4.393l39.367-39.361c10.418-10.417 16.154-24.27 16.154-39.007.004-14.738-5.732-28.592-16.15-39.004z" fill="#e56705"/>
  <path d="m507.594 163.444-159.057-159.05c-2.812-2.813-6.627-4.394-10.605-4.394h-152.631c-30.416 0-55.161 24.746-55.164 55.165 0 14.736 5.738 28.591 16.158 39.01 10.42 10.42 24.272 16.157 39.008 16.156l113.141.002 103.209 103.209v113.145c0 30.415 24.748 55.165 55.166 55.17h.008c30.418-.005 55.162-24.756 55.158-55.17l.002-152.637c-.001-3.978-1.581-7.793-4.393-10.606z" fill="#c5e1e6"/>
  <path d="m507.594 163.444-79.528-79.524-78.018 78.02 51.604 51.604v113.146c0 30.414 24.748 55.164 55.166 55.17h.008c30.418-.006 55.162-24.757 55.158-55.17l.002-152.638c0-3.98-1.58-7.795-4.392-10.608z" fill="#8db9c4"/>
</svg>
