<?xml version='1.0' encoding='UTF-8'?>
<svg xmlns="http://www.w3.org/2000/svg" id="Image" enable-background="new 0 0 64 64" height="16px" viewBox="0 0 64 64" width="16px" namespace="http://www.w3.org/2000/svg">
  <g style="fill:none;stroke:#424242;stroke-width:2;stroke-linecap:round;stroke-linejoin:round;stroke-miterlimit:10">
    <g>
      <path d="m59 45c0 1.104-.896 2-2 2h-50c-1.104 0-2-.896-2-2v-34c0-1.104.896-2 2-2h50c1.104 0 2 .896 2 2z"/>
      <path d="m5 42h54"/>
      <path d="m44 55h-24"/>
      <path d="m37 47 2 8"/>
      <path d="m27 47-2 8"/>
    </g>
    <path d="m16 29c0 1.657-1.343 3-3 3s-3-1.343-3-3v-6c0-1.657 1.343-3 3-3s3 1.343 3 3z"/>
    <path d="m30 20h6v9c0 1.657-1.343 3-3 3s-3-1.343-3-3"/>
    <path d="m26 23c0 1.657-1.343 3-3 3h-3v-6h3c1.657 0 3 1.343 3 3z"/>
    <path d="m23 26c1.657 0 3 1.343 3 3s-1.343 3-3 3h-3v-6"/>
    <path d="m54 29c0 1.657-1.343 3-3 3s-3-1.343-3-3v-6c0-1.657 1.343-3 3-3s3 1.343 3 3"/>
    <path d="m40 26h4"/>
  </g>
</svg>
