<?xml version='1.0' encoding='UTF-8'?>
<svg xmlns="http://www.w3.org/2000/svg" viewBox="0 0 24 24" width="16px" height="16px" namespace="http://www.w3.org/2000/svg">
  <g id="Layer_2" data-name="Layer 2">
    <g id="Layer_1-2" data-name="Layer 1">
      <circle cx="12.038" cy="12.017" fill="#cf1f25" r="11"/>
      <path d="m19.9834 13.7939a.6025.6025 0 0 0 -.1074-.7334c-.4993-.5017-2.0518-.6373-3.9791-.4193a9.4842 9.4842 0 0 1 -1.2357-.818 7.6964 7.6964 0 0 1 -2.116-3.4747 16.6672 16.6672 0 0 0 .2048-2.6845l.0078-.4248a.1243.1243 0 0 0 -.1113-.127.1214.1214 0 0 0 -.1362.1c-.0327.1621-.0625.36-.0981.5957-.05.3314-.1166.7552-.2173 1.2519a5.625 5.625 0 0 1 -.09-2.5468.8949.8949 0 0 1 .1123-.208.9077.9077 0 0 1 .3291.6807.1257.1257 0 0 0 .1191.1123h.0054a.1263.1263 0 0 0 .123-.1016 1.0455 1.0455 0 0 0 -.0952-.8672.5021.5021 0 0 0 -.4248-.1631l-.2838-.0033c-.2241 0-.4053.1768-.4839.4717a8.16 8.16 0 0 0 .35 4.0026 22.18 22.18 0 0 1 -1.49 3.7758c-1.7281 3.4794-3.05 5.3281-3.9344 5.5047a5.9353 5.9353 0 0 1 2.1644-2.6111.1251.1251 0 0 0 -.1333-.2109c-1.7134.9111-2.4668 1.9609-2.5913 2.583a.5184.5184 0 0 0 .0343.3543.1089.1089 0 0 0 .0107.0266c.0048.0071.0048.0188.01.0253a.1242.1242 0 0 0 .0374.03l.0021.0025.35.18a.7138.7138 0 0 0 .33.0791c.7959 0 1.9117-1.2422 3.3207-3.6638a26.013 26.013 0 0 1 5.6739-1.2 8.2578 8.2578 0 0 0 3.4165 1.026 1.5976 1.5976 0 0 0 .5278-.0723.4664.4664 0 0 0 .3433-.3594c.0032-.0192-.0146-.0322-.02-.05a.1207.1207 0 0 0 .0752-.063zm-8.9873-1.1494a16.8281 16.8281 0 0 0 1.2715-3.08 7.5225 7.5225 0 0 0 1.8824 2.7538 7.2576 7.2576 0 0 0 .6359.4842 21.5992 21.5992 0 0 0 -4.589 1.3145c.2581-.4564.5225-.9396.7992-1.4725zm8.7559 1.1289a4.7633 4.7633 0 0 1 -2.71-.5627 5.1542 5.1542 0 0 1 2.58.3117c.1172.0859.1265.1611.123.2109a.1185.1185 0 0 0 .0118.0405z" fill="#fff"/>
      <path d="m0 0h24v24h-24z" fill="none"/>
    </g>
  </g>
</svg>
