<?xml version='1.0' encoding='UTF-8'?>
<svg xmlns="http://www.w3.org/2000/svg" xmlns:xlink="http://www.w3.org/1999/xlink" height="16px" viewBox="0 0 176 176" width="16px" namespace="http://www.w3.org/2000/svg">
  <linearGradient id="linear-gradient" gradientUnits="userSpaceOnUse" x1="25.85" x2="150.15" y1="25.85" y2="150.15">
    <stop offset="0" stop-color="#f44336"/>
    <stop offset="1" stop-color="#d10000"/>
  </linearGradient>
  <g id="Layer_2" data-name="Layer 2">
    <g id="_18.R" data-name="18.R">
      <rect id="background" fill="url(#linear-gradient)" height="176" rx="88" width="176"/>
      <path d="m97.77 94.05a15 15 0 0 0 5.56-2.45 16.39 16.39 0 0 0 5.15-5.93 21.21 21.21 0 0 0 2.15-10.22 21.75 21.75 0 0 0 -2.63-10.93 18 18 0 0 0 -7.14-7 21.43 21.43 0 0 0 -10.38-2.52h-28.21v66h17.06v-25.65h1.3l14 25.65h19.15zm-7.37-12a11.66 11.66 0 0 1 -6.07 1.62h-5v-15.32h5.15a11.36 11.36 0 0 1 6 1.6c1.75 1.05 2.65 3.05 2.65 6.05s-.91 5-2.73 6.08z" fill="#fff"/>
    </g>
  </g>
</svg>
