<?xml version='1.0' encoding='UTF-8'?>
<svg xmlns="http://www.w3.org/2000/svg" xmlns:xlink="http://www.w3.org/1999/xlink" id="Layer_1" version="1.1" viewBox="0 0 127.5 127.5" width="16px" height="16px" namespace="http://www.w3.org/2000/svg">
  <!-- Generator: Adobe Illustrator 29.1.0, SVG Export Plug-In . SVG Version: 2.1.0 Build 142)  -->
  <defs>
    <style>
      .st0 {
        opacity: .2;
      }

      .st0, .st1, .st2 {
        isolation: isolate;
      }

      .st2 {
        fill: url(#linear-gradient);
        mix-blend-mode: color-burn;
        opacity: .6;
      }

      .st3 {
        fill: #fff;
      }

      .st4 {
        fill: #da2645;
      }

      .st5 {
        fill: #96001a;
      }

      .st6 {
        fill: #d30024;
      }
    </style>
    <linearGradient id="linear-gradient" x1="163.8" y1="36.6" x2="-2.9" y2="86.2" gradientTransform="translate(0 125) scale(1 -1)" gradientUnits="userSpaceOnUse">
      <stop offset="0" stop-color="#000" stop-opacity=".7"/>
      <stop offset="1" stop-color="#000" stop-opacity="0"/>
    </linearGradient>
  </defs>
  <g class="st1">
    <g id="Layer_2">
      <g id="Layer_1-2">
        <g>
          <image class="st0" width="178" height="181" transform="translate(-22.5 -28.5)" xlink:href="solidworks-1.png"/>
          <g>
            <polygon class="st6" points="64.4 9.2 16.4 25.3 16.4 80.7 64.4 108.4 112.4 80.7 112.4 25.3 64.4 9.2"/>
            <polyline class="st6" points="112.3 25.3 64.4 45 16.4 25.3 64.4 9.2 112.4 25"/>
            <polygon class="st4" points="64.4 45 64.4 108.4 16.4 80.7 16.4 25.3 16.4 25.3 64.4 45"/>
            <polygon class="st5" points="112.4 25.3 112.4 80.7 64.4 108.4 64.4 45 112.3 25.3 112.4 25.3"/>
            <path class="st3" d="M46.5,78.4c0-1.5-.6-2.9-1.5-4.1-1.1-1.4-2.4-2.8-3.7-4-1.5-1.4-3.1-2.8-4.9-4.3-1.8-1.5-3.4-3.2-4.9-4.9-1.5-1.8-2.7-3.7-3.7-5.8-1-2.2-1.5-4.6-1.5-7,0-1.9.3-3.7,1.1-5.4.7-1.3,1.8-2.3,3.1-2.9,1.5-.5,3.1-.7,4.7-.4,2.1.3,4.1.9,6.1,1.8,2.5,1.1,4.9,2.4,7.2,3.8,2,1.2,3.9,2.7,5.6,4.4l-2.6,6.4c-1.3-1.3-2.7-2.5-4.2-3.5-1.9-1.3-3.9-2.4-6-3.3-2-.9-3.6-1.1-4.7-.7-1.1.4-1.8,1.5-1.6,2.7,0,1.4.5,2.8,1.4,3.9,1.1,1.4,2.4,2.8,3.7,4,1.5,1.4,3.1,2.9,4.9,4.4,1.7,1.5,3.4,3.2,4.9,5,1.5,1.8,2.7,3.7,3.7,5.8,1,2.1,1.5,4.5,1.5,6.8,0,2-.3,4-1.2,5.9-.7,1.4-1.9,2.4-3.3,3-1.6.6-3.4.8-5.1.4-2.3-.4-4.5-1-6.6-2-2.9-1.2-5.7-2.7-8.4-4.5-1.9-1.2-3.7-2.6-5.3-4.1l2.8-6.5c.5.5,1.1,1,1.8,1.6s1.6,1.3,2.5,1.9,1.9,1.3,2.9,1.9c1,.6,2.1,1.2,3.1,1.7,2.6,1.1,4.6,1.5,5.9,1.2s2.1-1.4,2.1-3.2Z"/>
            <path class="st3" d="M80.3,71.4l.7,7.8h.2c0,0,.6-8.7.6-8.7l5.5-27.6,4.1-1.8,5.7,22.1.7,7.6h.2c0,0,.6-8.4.6-8.4l3.5-26,5.9-2.7-7.8,48.1-4.2,2.2-6-22.1-.8-6.5h-.2c0,.1-.7,7.4-.7,7.4l-5.6,28.2-4.6,2.4-9.4-42.1,7.2-3.2,4.5,23.3Z"/>
            <polygon class="st2" points="64.4 9.2 16.4 25.3 16.4 80.7 64.4 108.4 112.4 80.7 112.4 25.3 64.4 9.2"/>
          </g>
        </g>
      </g>
    </g>
  </g>
</svg>
