<?xml version='1.0' encoding='UTF-8'?>
<svg xmlns="http://www.w3.org/2000/svg" id="Layer_1" version="1.1" viewBox="0 0 605 605" width="16px" height="16px" namespace="http://www.w3.org/2000/svg">
  <!-- Generator: Adobe Illustrator 29.1.0, SVG Export Plug-In . SVG Version: 2.1.0 Build 142)  -->
  <defs>
    <style>
      .st0 {
        stroke: #0097d3;
      }

      .st0, .st1, .st2, .st3 {
        fill: none;
        stroke-linecap: round;
        stroke-linejoin: round;
        stroke-width: 2px;
      }

      .st4 {
        fill: #f38b00;
      }

      .st5 {
        fill: #0077a9;
      }

      .st1 {
        stroke: #0077a9;
      }

      .st2 {
        stroke: #c96d00;
      }

      .st6 {
        fill: #0097d3;
      }

      .st3 {
        stroke: #f28c00;
      }

      .st7 {
        fill: #c96d00;
      }
    </style>
  </defs>
  <g id="_____1">
    <g id="____________">
      <g>
        <path class="st4" d="M333.8,235.9c17.4,5.3,28.8,16.7,34.1,34.1v97.6h77.2c0-.1,11.9-.1,11.9-.1v-.2h1.1v-165.6c-8.9-28.8-27.6-47.6-56.3-56.4H56.1C27.5,154.2,8.7,173-.2,201.8v348c8.9,28.8,28,47,57.5,54.7h343.3c29.5-7.7,48.6-25.9,57.5-54.7v-90.7h-90.2v21.9c-5.4,17.5-17,28.5-34.8,33.1h2.3H122.6h2.4c-17.9-4.6-29.5-15.7-34.8-33.1v-210.9c5.4-17.5,16.7-28.8,34.1-34.1h209.5Z"/>
        <path class="st3" d="M125,514.1c-17.9-4.6-29.5-15.7-34.8-33.1v-210.9c5.4-17.5,16.7-28.8,34.1-34.1h209.5c17.4,5.3,28.8,16.7,34.1,34.1v97.6M458.1,367.4v-165.6c-8.9-28.8-27.6-47.6-56.3-56.4H56.1C27.5,154.2,8.7,173-.2,201.8v348c8.9,28.8,28,47,57.5,54.7h343.3c29.5-7.7,48.6-25.9,57.5-54.7v-90.7M367.9,459.1v21.9c-5.4,17.5-17,28.5-34.8,33.1h2.3M122.6,514.1h210.5M53.4,604.5h3.9M400.6,604.5h3.9"/>
      </g>
    </g>
    <g id="____________1" data-name="____________">
      <g>
        <path class="st6" d="M605.2,56.9c-8.9-28.8-27.6-47.6-56.3-56.4H203.3c-28.7,8.8-47.4,27.6-56.3,56.4v88.5h90.2v-20.2c5.4-17.5,16.7-28.8,34.1-34.1h209.5c17.4,5.3,28.8,16.7,34.1,34.1v210.9c-5.4,17.5-17,28.5-34.8,33.1h2.4-212.8,2.3c-17.9-4.6-29.5-15.7-34.8-33.1v-100.1h-90.2v169c8.9,28.8,28,47,57.5,54.7h343.3c29.5-7.7,48.6-25.9,57.5-54.7V56.9Z"/>
        <path class="st0" d="M147,235.9v169c8.9,28.8,28,47,57.5,54.7h343.3c29.5-7.7,48.6-25.9,57.5-54.7V56.9c-8.9-28.8-27.6-47.6-56.3-56.4H203.3c-28.7,8.8-47.4,27.6-56.3,56.4v88.5M237.2,145.4v-20.2c5.4-17.5,16.7-28.8,34.1-34.1h209.5c17.4,5.3,28.8,16.7,34.1,34.1v210.9c-5.4,17.5-17,28.5-34.8,33.1h2.4M272,369.2h-2.3M237.2,235.9v100.1c5.4,17.5,17,28.5,34.8,33.1h208M204.5,459.6h-3.9M551.7,459.6h-3.9"/>
      </g>
    </g>
    <g id="__">
      <g>
        <g>
          <path class="st7" d="M458.1,497.8v-38.7l-85.1.5,85.1,38.2Z"/>
          <path class="st5" d="M147,238.5v36.3l86.1-36.7-86.1.4Z"/>
        </g>
        <path class="st1" d="M233.1,238.1l-86.1,36.7v-36.3l86.1-.4Z"/>
        <path class="st2" d="M373,459.6l85.1,38.2v-38.7l-85.1.5Z"/>
      </g>
    </g>
  </g>
</svg>
