<?xml version='1.0' encoding='UTF-8'?>
<svg xmlns="http://www.w3.org/2000/svg" id="Layer_2" height="16px" viewBox="0 0 480 480" width="16px" namespace="http://www.w3.org/2000/svg">
  <g id="Layer_1-2">
    <g id="XML">
      <g id="Base">
        <path d="m0 232.9 42.91-42.91v42.91z" fill="#772a2e"/>
        <path d="m480 232.9-42.91-42.91v42.91z" fill="#772a2e"/>
        <path d="m340 0h-274.64c-14.01 0-25.36 11.19-25.36 25v430c0 13.81 11.35 25 25.36 25h349.28c14.01 0 25.36-11.19 25.36-25v-355z" fill="#ec5e63"/>
        <path d="m340 0 100 100h-100z" fill="#ffd9da"/>
        <path d="m0 232.9h480v180h-480z" fill="#b74146"/>
        <path d="m440 100v100l-100-100z" fill="#d33f44"/>
        <g fill="#ffd9da">
          <rect height="20" rx="10" width="139.48" x="80" y="96.69"/>
          <rect height="20" rx="10" width="230" x="80" y="134.8"/>
          <rect height="20" rx="10" width="230" x="80" y="172.9"/>
        </g>
      </g>
      <g id="XML-2" fill="#fff">
        <path d="m134.83 305.03 17.43-35.45h29.37l-29.81 52.88 30.62 53.76h-29.66l-17.94-36.11-17.95 36.11h-29.59l30.54-53.76-29.74-52.88h29.3z"/>
        <path d="m224.55 269.58 23.8 74.19 23.73-74.19h33.84v106.64h-25.78v-24.9l2.49-50.98-25.78 75.88h-16.99l-25.86-75.95 2.49 51.05v24.9h-25.71v-106.64h33.76z"/>
        <path d="m347.96 356.45h44.75v19.78h-70.46v-106.64h25.71v86.87z"/>
      </g>
    </g>
  </g>
</svg>
