<svg id="Layer_1" enable-background="new 0 0 51 51" height="512" viewBox="0 0 51 51" width="512" xmlns="http://www.w3.org/2000/svg"><g id="_x33_0"><path d="m41.7238235 17.0140419.0216065-7.6144419-15.2978516-7.8995968-.8510132.4945679-.0061035 2.1580812-1.7573242-1.1333011-.8510742.4945679-.0100098 3.528992-3.210083-1.6576539-.8510742.4945679-.0061035 2.1580806-1.7573242-1.1333003-.8509522.4945679-.0100097 3.5308222-3.2102042-1.6594848-.8510132.4945678-.0061035 2.1580811-1.7573242-1.1333008-.8510132.4945679-.0158081 5.5682382-4.4486699 2.5853272-.0681763 18.2528076 20.4541622 11.8092041 20.321228-11.8094482.0682373-18.2528076z" fill="#febc1f"/><g><g><g><g enable-background="new"><g><g><path d="m45.9218063 19.4377708-20.3212452 11.8094178-20.4541726-11.8092213 20.3212457-11.8094187z" fill="#ffde9b"/></g><g><path d="m7.5018673 19.434536 17.9677429-10.4415026 18.0965862 10.4481325-17.9677429 10.4415016z" fill="#ffd06c"/></g></g></g></g><g><path d="m25.4696102 8.9930334.1288433 20.8896341-18.0965862-10.4481315z" fill="#febc1f"/></g><g><g><path d="m39.3219681 26.3665695c.0541878.1425343.0896797.3063984.0909386.5011768 0 .4604282-.1593971.9681282-.4250107 1.4226456-.2597389.4545555-.6198578.8441486-1.0212708 1.0802898l-6.2219162 3.5891304c-.1722965.10009-.3348274.1538124-.4877033.1791763.2010117.5298576.7290688.6920319 1.3613224.3247757l6.22192-3.5891304c.4014091-.2361412.761528-.6257343 1.0212708-1.0802898.2656136-.4545174.4250069-.9622173.4250069-1.4226456-.0046082-.7211036-.4060937-1.0949153-.9645577-1.0051288z" fill="#ffde9b"/></g><g><path d="m37.9666252 29.3706818c.401413-.2361412.7615318-.6257343 1.0212708-1.0802898.2656136-.4545174.4250107-.9622173.4250107-1.4226456-.0012589-.1947784-.0367508-.3586426-.0909386-.5011768-.1547127.0248604-.3193359.0787983-.4935036.1786728l-6.2160454 3.5950413c-.4073181.2302303-.7674026.6257324-1.0271435 1.074379-.2597408.4486446-.419138.9622173-.419138 1.4226437.0012608.1944199.036644.3587151.090868.5016823.1528759-.0253639.3154068-.0790863.4877033-.1791763z" fill="#febc1f"/></g></g></g><g><g><g><g><g><g><g enable-background="new"><g><g><path d="m39.9840889 9.4307861-.0558662 19.705782-14.3875313-7.4362393.0558662-19.705782z" fill="#df3260"/></g></g><g><g><path d="m36.6775627 12.3447161-.0558662 19.7057829-13.6954785-8.8308049.0558663-19.7057817z" fill="#df3260"/></g></g><g><g><g><path d="m39.9840126 10.2457228-3.2651367 1.8993396-11.4601555-7.3901653 1.9314079-1.1192241z" fill="#fff"/></g></g><g><g><path d="m33.4160156 14.0663481-3.2651348 1.8993397-11.4601574-7.3901654 1.9314079-1.119224z" fill="#fff"/></g></g><g><path d="m41.74543 9.3995953-.0558662 19.7057819-5.0678673 2.9451218.0558662-19.7057829z" fill="#cc104a"/></g></g></g><g enable-background="new"><g><g><path d="m33.2985001 13.3160267-.0558663 19.7057819-14.3875847-7.4362087.0558663-19.7057824z" fill="#5094ff"/></g></g><g><g><path d="m29.9919224 16.2299862-.0558663 19.7057819-13.6954288-8.8308334.0558662-19.7057819z" fill="#5094ff"/></g></g><g><g><path d="m35.0597878 13.2848654-.0558663 19.7057848-5.0678654 2.9451179.0558663-19.7057819z" fill="#497bfe"/></g></g></g><g enable-background="new"><g><g><path d="m26.6128559 17.2012978-.0558662 19.7057838-14.3875828-7.4362106.0558662-19.7057829z" fill="#72d561"/></g></g><g><g><path d="m23.2986355 20.1196995-.0558663 19.7057819-13.6877832-8.8352756.0558662-19.705782z" fill="#72d561"/></g></g><g><g><path d="m28.3665009 17.1745777-.0558663 19.7057819-5.0678654 2.9451218.0558663-19.7057819z" fill="#5ec363"/></g><g><path d="m24.2019272 20.6410179 3.2556953-1.891943-.0499038 9.3814564-3.2561379 1.891943z" fill="#fff"/></g></g></g></g><g><g><path d="m32.4903221 27.37537c.8510742-.4913673 1.5383186-.0997372 1.5410919.8782234.0027542.9719734-.680027 2.1545906-1.5311012 2.6459579-.8458843.4883709-1.5331287.0967407-1.5358849-.8752327-.0027732-.9779605.6800099-2.1605777 1.5258942-2.6489486z" fill="#111d33"/></g><g><g><path d="m33.6708565 28.2512932c0 .8411407-.6150246 1.9083939-1.3476334 2.3335171-.1899567.108532-.3617496.162796-.5064926.162796-.1718502 0-.2803802-.0723724-.361805-.1809025-.108532-.162796-.1265831-.4070168-.1265831-.5426521-.0090542-.8411942.6150246-1.9084492 1.3476334-2.3335171.1356354-.0814266.2622719-.1266384.3798561-.1537418.0452118-.0090542.0814247-.0090542.1266365-.0090542.434124 0 .4883881.5064945.4883881.7235546z" fill="#4c5c75"/></g><g><path d="m33.1915245 28.0794449c0 .8411388-.6150246 1.908392-1.3566875 2.3335171-.1356907.0723171-.2623291.1265812-.3799114.1537418-.108532-.162796-.1265831-.4070168-.1265831-.5426521-.0090542-.8411942.6150246-1.9084492 1.3476334-2.3335171.1356354-.0814266.2622719-.1266384.3798561-.1537418.1175841.1718483.1356925.4160137.1356925.5426521z" fill="#9ea9c9"/></g></g></g><g><g><path d="m39.1759644 23.5332584c.8510742-.4913673 1.5383186-.0997372 1.5410919.8782215.0027542.9719753-.680027 2.1545925-1.5311012 2.6459599-.8458824.4883709-1.5331306.0967407-1.5358849-.8752346-.0027733-.9779587.6800117-2.1605759 1.5258942-2.6489468z" fill="#111d33"/></g><g><g><path d="m40.3564987 24.4091816c0 .8411388-.6150246 1.9083939-1.3476334 2.3335171-.1899567.10853-.3617477.162796-.5064926.162796-.1718483 0-.2803802-.0723724-.361805-.1809025-.108532-.162796-.1265831-.4070168-.1265831-.5426521-.0090523-.8411961.6150246-1.9084492 1.3476334-2.3335171.1356354-.0814266.2622719-.1266384.3798561-.1537437.0452118-.0090523.0814285-.0090523.1266403-.0090523.4341202 0 .4883843.5064945.4883843.7235546z" fill="#4c5c75"/></g><g><path d="m39.8771667 24.2373333c0 .8411388-.6150246 1.908392-1.3566895 2.3335171-.1356888.0723152-.2623253.1265812-.3799095.1537418-.108532-.162796-.1265831-.4070168-.1265831-.5426521-.0090523-.8411961.6150246-1.9084492 1.3476334-2.3335171.1356354-.0814266.2622719-.1266384.3798561-.1537437.1175843.1718502.1356926.4160156.1356926.542654z" fill="#9ea9c9"/></g></g></g><g><g><path d="m25.7970352 31.2982979c.8510742-.4913692 1.5383205-.0997372 1.5410938.8782234.0027542.9719734-.680027 2.1545906-1.5311012 2.6459579-.8458843.488369-1.5331306.0967407-1.5358849-.8752327-.0027732-.9779624.6800099-2.1605777 1.5258923-2.6489486z" fill="#111d33"/></g><g><g><path d="m26.9775715 32.174221c0 .8411407-.6150246 1.9083939-1.3476334 2.3335152-.1899548.108532-.3617496.162796-.5064945.162796-.1718483 0-.2803783-.0723724-.361805-.1809006-.10853-.162796-.1265812-.4070168-.1265812-.5426521-.0090542-.8411942.6150246-1.9084511 1.3476334-2.333519.1356354-.0814247.2622719-.1266365.3798561-.1537418.0452118-.0090542.0814266-.0090542.1266384-.0090542.4341221 0 .4883862.5064945.4883862.7235565z" fill="#4c5c75"/></g><g><path d="m26.4982376 32.0023727c0 .8411369-.6150246 1.90839-1.3566856 2.3335152-.1356907.072319-.2623291.1265831-.3799133.1537437-.10853-.162796-.1265812-.4070168-.1265812-.5426521-.0090542-.8411942.6150246-1.9084511 1.3476334-2.333519.1356354-.0814247.2622719-.1266365.3798561-.1537418.1175841.1718502.1356906.4160156.1356906.542654z" fill="#9ea9c9"/></g></g></g></g><g><g><path d="m41.74543 9.3995953-5.0678673 2.9451208-13.6954784-8.8308037.851057-.4945802 12.8848191 8.3095205 3.2661285-1.8980666-14.3875313-7.4362393.8510056-.49455z" fill="#f45170"/></g></g><g><g><g><path d="m40.3763084 12.7652397.0007973.4214001-2.3862991 1.3777304-.0007973-.4214001z" fill="#e3e7f0"/></g></g><g><g><path d="m40.3763084 14.3500147.0007973.4214001-2.3862991 1.3777303-.0007973-.421401z" fill="#e3e7f0"/></g></g><g><g><path d="m40.3763084 15.9347887.0007973.4213991-2.3862991 1.3777313-.0007973-.4214z" fill="#e3e7f0"/></g></g><g><g><path d="m40.3763084 17.5195618.0007973.4214-2.3862991 1.3777314-.0007973-.4214001z" fill="#e3e7f0"/></g></g><g><g><path d="m40.3763084 19.1043358.0007973.4214001-2.3862991 1.3777313-.0007973-.4214001z" fill="#e3e7f0"/></g></g></g><g><g><g><path d="m33.6906967 16.6504784.0007935.4214-2.3862973 1.3777314-.0007953-.4214001z" fill="#e3e7f0"/></g></g><g><g><path d="m33.6906967 18.2352524.0007935.4214001-2.3862973 1.3777313-.0007953-.4214001z" fill="#e3e7f0"/></g></g><g><g><path d="m33.6906967 19.8200264.0007935.4214001-2.3862973 1.3777313-.0007953-.4214001z" fill="#e3e7f0"/></g></g><g><g><path d="m33.6906967 21.4048023.0007935.4213982-2.3862973 1.3777313-.0007953-.4214001z" fill="#e3e7f0"/></g></g><g><g><path d="m33.6906967 22.9895763.0007935.4214001-2.3862973 1.3777294-.0007953-.4214z" fill="#e3e7f0"/></g></g></g><g><g><g><path d="m26.9973526 20.5401344.0007954.4214001-2.3862973 1.3777294-.0007972-.4214001z" fill="#e3e7f0"/></g></g><g><g><path d="m26.9973526 22.1249084.0007954.4214001-2.3862973 1.3777294-.0007972-.4214z" fill="#e3e7f0"/></g></g><g><g><path d="m26.9973526 23.7096825.0007954.4214-2.3862973 1.3777295-.0007972-.4214001z" fill="#e3e7f0"/></g></g><g><g><path d="m26.9973526 25.2944565.0007954.4214001-2.3862973 1.3777294-.0007972-.4214001z" fill="#e3e7f0"/></g></g><g><g><path d="m26.9973526 26.8792305.0007954.4214001-2.3862973 1.3777294-.0007972-.4214001z" fill="#e3e7f0"/></g></g></g><g><g><path d="m33.4160156 14.0663481-3.2651348 1.8993397-11.4601574-7.3901654 1.9314079-1.119224z" fill="#fff"/></g></g><g><g><path d="m26.8480186 17.8869724-3.2651348 1.8993416-11.4601564-7.3901672 1.9314079-1.1192236z" fill="#fff"/></g></g><g><g><path d="m35.0597878 13.2848654-5.0678654 2.9451208-13.6954289-8.8308334.8510056-.4945498 12.884819 8.3095198 3.266182-1.8980961-14.3875847-7.4362092.851057-.4945803z" fill="#57b3fe"/></g></g><g><g><path d="m28.3665009 17.1745777-5.0678654 2.9451218-13.6877833-8.8352757.8510046-.4945497 12.8848706 8.3094892 3.2661285-1.8980655-14.3875828-7.4362097.8510561-.4945803z" fill="#78e75a"/></g></g></g></g></g></g><g><path d="m45.9218063 19.4377708-20.3212452 11.8094178-20.4541726-11.8092213 2.3554788-.0034313 18.0965862 10.4481315 17.9677429-10.4415016z" fill="#ffde9b"/></g><g><g><path d="m45.9218063 19.4377708-.0682106 18.2528077-20.3212452 11.8094177.0682106-18.2528076z" fill="#ffd06c"/></g></g><g><g><path d="m25.6005611 31.2471886-.0682106 18.2528076-20.4541726-11.8092232.0682106-18.2528057z" fill="#febc1f"/></g></g><g><g><g><path d="m39.3227158 26.3665695c.0541878.1425343.0896759.3063984.0909386.5011768 0 .4604282-.1593971.9681282-.4250107 1.4226456-.2597389.4545555-.6198616.8441486-1.0212708 1.0802898l-6.2219181 3.5891304c-.1722965.10009-.3348274.1538124-.4877033.1791763.2010117.5298576.7290688.6920319 1.3613243.3247757l6.2219162-3.5891304c.401413-.2361412.7615318-.6257343 1.0212708-1.0802898.2656136-.4545174.4250107-.9622173.4250107-1.4226456-.0046121-.7211036-.4060937-1.0949153-.9645577-1.0051288z" fill="#ffde9b"/></g><g><path d="m39.4128723 26.8696918v.0354176c-.005909.4486465-.1653061.9444923-.4250488 1.3872299-.2597389.4545536-.6198235.8441467-1.0212326 1.0802879l-1.3341217.7674026-1.6174583.9327106-3.2703381 1.8890171c-.1712151.1003456-.3364849.1534538-.4840641.1770897-.0590534-.1416702-.094471-.3069763-.094471-.5017929 0-.4604263.1593971-.973999.419138-1.4226437.0235996-.0413265.0531082-.088562.0767441-.1298885.082653-.1239433.1652699-.2420139.2597408-.3541756.2065964-.2420139.4368286-.4486465.6906586-.5903168l.4663353-.2656498s0-.0059071.005909-.0059071l.6375542-.3659935 1.2987022-.7555866 1.6174583-.9327087 1.3223038-.7674046.330574-.1948128h.005909l.5312996-.3069763c.1770859-.1003437.3423576-.1534519.4958458-.1770878.0118179.0354176.0235977.0708351.0354156.1062527.0354194.1180708.0531463.2479594.0531463.3955366z" fill="#febc1f"/></g></g></g><g><g><g><g><g><g><g enable-background="new"><g><g><path d="m39.359726 26.4741554c.0354195.1180706.0531464.2479591.0531464.3955364v.0354176c-.005909.4486465-.1653061.9444923-.4250488 1.3872299-.2597389.4545536-.6198235.8441467-1.0212326 1.0802879l-1.3341217.7674026.005909-2.3258457 1.3223038-.7674046.330574-.1948128h.005909l.5312996-.3069763c.1770859-.1003437.3423576-.1534519.4958458-.1770878.0118177.0354177.0235975.0708353.0354155.1062528z" fill="#cc104a"/></g><g><path d="m40.8414268 10.9665785-.0531463 9.381793-3.2526093 1.894928.0471993-9.3818302z" fill="#fff"/></g></g></g><g enable-background="new"><g><g><path d="m35.0209198 28.7468929-.005909 2.3258476-3.2703381 1.8890171c-.1712151.1003456-.3364849.1534538-.4840641.1770897-.0590534-.1416702-.094471-.3069763-.094471-.5017929 0-.4604263.1593971-.973999.419138-1.4226437.0235996-.0413265.0531082-.088562.0767441-.1298885.082653-.1239433.1652699-.2420139.2597408-.3541756.2065964-.2420139.4368286-.4486465.6906586-.5903168l.4663353-.2656498s0-.0059071.005909-.0059071l.6375542-.3659935z" fill="#497bfe"/></g><g><path d="m34.1531372 14.850832-.0471992 9.3818302-3.2585583 1.8949261.0531082-9.3818283z" fill="#fff"/></g></g></g></g><g><g><path d="m33.7222176 29.5024796c-.2833405.5785332-.7202034 1.1038876-1.2160492 1.3931732-.3128853.1770878-.6021347.236105-.8441486.1888695.082653-.1239433.1652699-.2420139.2597408-.3541756.2065964-.2420139.4368286-.4486465.6906586-.5903168l.4663353-.2656498s0-.0059071.005909-.0059071z" fill="#111d33"/></g><g><g><path d="m33.0787544 29.8743801c-.2184105.2951584-.4722443.5431175-.7496758.7024784-.1534882.088562-.2892494.1357975-.4073181.1534882.2065964-.2420139.4368286-.4486465.6906586-.5903168z" fill="#4c5c75"/></g></g></g><g><g><path d="m39.4128723 26.8696918v.0354176c-.0767441.0531082-.1475792.1062527-.2243233.1475792-.5017891.2892494-.9504013.2656498-1.2278671-.005909l.330574-.1948128h.005909l.5312996-.3069763c.1770859-.1003437.3423576-.1534519.4958458-.1770878.0118179.0354176.0235977.0708351.0354156.1062527.0354195.1180706.0531464.2479592.0531464.3955364z" fill="#111d33"/></g><g><g><path d="m39.359726 26.4741554c-.1121597.1003799-.2302322.1889057-.3482666.2597408-.1889038.1121616-.3601189.1653042-.5076981.1653042-.0826149 0-.1534882-.017725-.2065964-.0472336l.5312996-.3069763c.1770859-.1003437.3423576-.1534519.4958458-.1770878.0118179.0354176.0235977.0708352.0354157.1062527z" fill="#4c5c75"/></g></g></g></g><g><g><g><path d="m40.3801308 12.7586584.0007972.4214001-2.3862991 1.3777294-.0007973-.4214001z" fill="#e3e7f0"/></g></g><g><g><path d="m40.3801308 14.3434324.0007972.4214001-2.3862991 1.3777304-.0007973-.4214011z" fill="#e3e7f0"/></g></g><g><g><path d="m40.3801308 15.9282064.0007972.4213992-2.3862991 1.3777313-.0007973-.4214001z" fill="#e3e7f0"/></g></g><g><g><path d="m40.3801308 17.5129814.0007972.4213982-2.3862991 1.3777313-.0007973-.4214001z" fill="#e3e7f0"/></g></g><g><g><path d="m40.3801308 19.0977554.0007972.4214001-2.3862991 1.3777294-.0007973-.4214001z" fill="#e3e7f0"/></g></g></g><g><g><g><path d="m33.6945152 16.6438961.0007973.4214001-2.3862972 1.3777313-.0007973-.4214001z" fill="#e3e7f0"/></g></g><g><g><path d="m33.6945152 18.2286701.0007973.4214001-2.3862972 1.3777313-.0007973-.4214001z" fill="#e3e7f0"/></g></g><g><g><path d="m33.6945152 19.813446.0007973.4214001-2.3862972 1.3777294-.0007973-.4214z" fill="#e3e7f0"/></g></g><g><g><path d="m33.6945152 21.3982201.0007973.4214-2.3862972 1.3777294-.0007973-.4214z" fill="#e3e7f0"/></g></g><g><g><path d="m33.6945152 22.9829941.0007973.4214-2.3862972 1.3777295-.0007973-.4214001z" fill="#e3e7f0"/></g></g></g></g></g></g></g><g><path d="m36.6383781 27.8141842-.0059089 2.3258457-1.6174584.9327107.005909-2.3258477z" fill="#df3260"/></g></g></g></svg>