<svg xmlns="http://www.w3.org/2000/svg" version="1.1" xmlns:xlink="http://www.w3.org/1999/xlink" width="512" height="512" x="0" y="0" viewBox="0 0 548.29 548.29" style="enable-background:new 0 0 512 512" xml:space="preserve" class=""><g><path d="M331.636 460.364h-10.289v37.606c2.961.394 6.531.394 11.676.394 13.659 0 25.723-5.144 25.723-19.196-.001-13.45-12.064-18.804-27.11-18.804zM355.584 422.369c0-10.09-7.723-15.434-21.38-15.434-6.531 0-10.289.389-12.867.787v31.071h9.896c15.836.005 24.351-6.525 24.351-16.424z" fill="#a149db" opacity="1" data-original="#000000" class=""></path><path d="M472.929 131.399c-.031-2.518-.823-5-2.55-6.964L364.655 3.677c-.021-.031-.052-.042-.083-.075-.631-.704-1.355-1.284-2.132-1.796a13.322 13.322 0 0 0-.704-.419 11.473 11.473 0 0 0-2.121-.885c-.198-.06-.377-.142-.577-.194A10.746 10.746 0 0 0 356.571 0H96.757C84.904 0 75.255 9.649 75.255 21.502V526.79c0 11.858 9.649 21.501 21.502 21.501h354.776c11.862 0 21.502-9.643 21.502-21.501V132.6c0-.401-.062-.805-.106-1.201zM232.287 519.35h-35.224l-42.751-133.392h33.047l16.234 56.398c4.559 15.838 8.704 31.077 11.874 47.702h.595c3.36-16.027 7.515-31.864 12.074-47.103l17.018-56.998h32.064L232.287 519.35zm144.274-10.686c-9.7 7.721-25.921 12.073-52.451 12.073-14.836 0-25.922-.992-32.651-1.979V387.733c7.916-1.581 23.947-2.768 38.991-2.768 18.406 0 29.682 1.78 39.382 7.513 9.303 4.955 16.031 14.052 16.031 26.127 0 11.873-6.929 22.955-21.963 28.499v.397c15.234 4.158 26.521 15.633 26.521 32.851-.001 12.075-5.546 21.581-13.86 28.312zM96.757 365.085V21.507H345.82v110.015c0 5.935 4.809 10.75 10.751 10.75h94.962l.01 222.813H96.757z" fill="#a149db" opacity="1" data-original="#000000" class=""></path><path d="M341.411 86.673h-165.27c-7.678 0-13.919 7.145-13.919 15.932v180.349h.045c0 .042.021.062.026.104-7.724 2.446-13.412 10.541-13.412 20.142 0 11.544 8.199 20.931 18.284 20.931h126.496c-.003.042-.003.084-.016.131h24.751c7.682 0 13.922-7.145 13.922-15.933V104.574c.062-7.483 8.012-7.279 8.913-7.279h.033c3.932 0 7.139 3.656 7.139 8.16 0 4.499-3.201 8.166-7.139 8.166-2.558 0-4.636 2.37-4.636 5.304 0 2.935 2.078 5.312 4.636 5.312 9.054 0 16.413-8.425 16.413-18.782.001-10.359-7.359-18.782-16.266-18.782zm-56.51 226.832H167.165c-4.964 0-9.006-4.625-9.006-10.31 0-5.68 4.037-10.3 9.006-10.3h117.856c-1.764 2.836-2.992 6.3-2.992 10.427 0 4.031 1.177 7.412 2.872 10.183zm16.572-108.035H190.38v-8.959h111.092v8.959zm0 23.599H190.38v-8.96h111.092v8.96zm0-45.998H190.38v-8.961h111.092v8.961zm0-25.447H190.38v-8.96h111.092v8.96zm0-22.398H190.38v-8.961h111.092v8.961z" fill="#a149db" opacity="1" data-original="#000000" class=""></path></g></svg>