<svg id="Layer_1" enable-background="new 0 0 512 512" height="512" viewBox="0 0 512 512" width="512" xmlns="http://www.w3.org/2000/svg"><g><g><path d="m160 24h96v16h-96z" fill="#2387c3"/></g><g><path d="m192 88h64v16h-64z" fill="#2387c3"/></g><g><path d="m256 24h96v16h-96z" fill="#d73728" transform="matrix(-1 0 0 -1 608 64)"/></g><g><path d="m256 88h64v16h-64z" fill="#d73728" transform="matrix(-1 0 0 -1 576 192)"/></g><g><path d="m160 472h96v16h-96z" fill="#2387c3"/></g><g><path d="m192 408h64v16h-64z" fill="#2387c3"/></g><g><path d="m256 472h96v16h-96z" fill="#d73728" transform="matrix(-1 0 0 -1 608 960)"/></g><g><path d="m256 408h64v16h-64z" fill="#d73728" transform="matrix(-1 0 0 -1 576 832)"/></g><g><path d="m256 248h96v16h-96z" fill="#2387c3" transform="matrix(-1 0 0 -1 608 512)"/></g><g><path d="m256 184h64v16h-64z" fill="#2387c3" transform="matrix(-1 0 0 -1 576 384)"/></g><g><path d="m160 248h96v16h-96z" fill="#d73728"/></g><g><path d="m192 184h64v16h-64z" fill="#d73728"/></g><g><path d="m256 312h64v16h-64z" fill="#2387c3" transform="matrix(-1 0 0 -1 576 640)"/></g><g><path d="m192 312h64v16h-64z" fill="#d73728"/></g><g><path d="m160 272c-8.836 0-16-7.163-16-16 0-31.247 11.271-58.178 34.458-82.33 19.376-20.185 44.635-35.971 69.062-51.238 47.477-29.673 88.48-55.3 88.48-106.432 0-8.837 7.164-16 16-16s16 7.163 16 16c0 31.247-11.271 58.178-34.458 82.33-19.376 20.185-44.635 35.971-69.062 51.238-47.477 29.673-88.48 55.3-88.48 106.432 0 8.837-7.164 16-16 16z" fill="#d73728"/></g><g><path d="m160 512c-8.836 0-16-7.163-16-16 0-31.247 11.271-58.178 34.458-82.33 19.376-20.185 44.635-35.971 69.062-51.238 47.477-29.673 88.48-55.3 88.48-106.432 0-8.837 7.164-16 16-16s16 7.163 16 16c0 31.247-11.271 58.178-34.458 82.33-19.376 20.185-44.635 35.971-69.062 51.238-47.477 29.673-88.48 55.3-88.48 106.432 0 8.837-7.164 16-16 16z" fill="#2387c3"/></g><g><path d="m352 512c-8.836 0-16-7.163-16-16 0-51.132-41.003-76.759-88.48-106.432-24.427-15.268-49.686-31.054-69.062-51.238-23.187-24.152-34.458-51.083-34.458-82.33 0-8.837 7.164-16 16-16s16 7.163 16 16c0 51.132 41.003 76.759 88.48 106.432 24.427 15.268 49.686 31.054 69.062 51.238 23.187 24.152 34.458 51.083 34.458 82.33 0 8.837-7.164 16-16 16z" fill="#f05a4b"/></g><g><path d="m352 272c-8.836 0-16-7.163-16-16 0-51.132-41.003-76.759-88.48-106.432-24.427-15.268-49.686-31.054-69.062-51.238-23.187-24.152-34.458-51.083-34.458-82.33 0-8.837 7.164-16 16-16s16 7.163 16 16c0 51.132 41.003 76.759 88.48 106.432 24.427 15.268 49.686 31.054 69.062 51.238 23.187 24.152 34.458 51.083 34.458 82.33 0 8.837-7.164 16-16 16z" fill="#5ad7ff"/></g></g></svg>