<?xml version="1.0" encoding="UTF-8"?>
<svg id="Layer_1" xmlns="http://www.w3.org/2000/svg" version="1.1" viewBox="0 0 512 512">
  <!-- Generator: Adobe Illustrator 29.1.0, SVG Export Plug-In . SVG Version: 2.1.0 Build 142)  -->
  <defs>
    <style>
      .st0 {
        fill: #3f5c6c;
      }

      .st1 {
        fill: #f0c419;
      }

      .st2 {
        fill: #2c3e50;
      }

      .st3 {
        fill: #35495e;
      }

      .st4 {
        fill: #ecf0f1;
      }
    </style>
  </defs>
  <g id="Page-1">
    <g id="_x30_17---DOS-Bomb">
      <path id="Shape" class="st2" d="M159.7,142.9l-7.9-2.6c-10.3-3.5-17.2-13.1-17.3-24V26c0-9.6,7.8-17.3,17.4-17.4h17.1c7.3,0,14.3,3.3,19.1,8.9l67.9,77.9,67.9-77.9c4.8-5.6,11.7-8.8,19.1-8.9h17.1c9.6,0,17.3,7.8,17.4,17.4v90.3c0,10.9-7,20.5-17.3,24l-7.9,2.6h-192.7,0Z"/>
      <path id="Rectangle-path" class="st3" d="M256,95.5h0c67.1,0,121.5,54.4,121.5,121.5v173.6c0,67.1-54.4,121.5-121.5,121.5h0c-67.1,0-121.5-54.4-121.5-121.5v-173.6c0-67.1,54.4-121.5,121.5-121.5h0Z"/>
      <path id="Shape1" class="st0" d="M256,147.5c-4.8,0-8.7-3.9-8.7-8.7V8.7c0-4.8,3.9-8.7,8.7-8.7s8.7,3.9,8.7,8.7v130.2c0,4.8-3.9,8.7-8.7,8.7h0Z"/>
      <path id="Rectangle-path1" class="st1" d="M134.5,216.9h243v173.6h-243v-173.6Z"/>
      <g>
        <path id="Shape2" class="st4" d="M186.6,347.1h-13c-7.2,0-13-5.8-13-13v-60.7c0-7.2,5.8-13,13-13h13c14.4,0,26,11.7,26,26v34.7c0,14.4-11.7,26-26,26ZM177.9,329.8h8.7c4.8,0,8.7-3.9,8.7-8.7v-34.7c0-4.8-3.9-8.7-8.7-8.7h-8.7v52.1h0Z"/>
        <path id="Shape3" class="st4" d="M256,347.1c-14.4,0-26-11.7-26-26v-34.7c0-14.4,11.7-26,26-26s26,11.7,26,26v34.7c0,14.4-11.7,26-26,26ZM256,277.7c-4.8,0-8.7,3.9-8.7,8.7v34.7c0,4.8,3.9,8.7,8.7,8.7s8.7-3.9,8.7-8.7v-34.7c0-4.8-3.9-8.7-8.7-8.7Z"/>
        <path id="Shape4" class="st4" d="M325.4,347.1c-9.3,0-17.9-5-22.6-13-2.2-4.1-.8-9.3,3.3-11.6s9.3-1,11.7,2.9c2.1,3.6,6.5,5.3,10.5,3.8s6.3-5.5,5.6-9.6-4.3-7.2-8.5-7.2c-12.6,0-23.4-9.1-25.6-21.5s4.9-24.7,16.7-29c11.9-4.3,25.1.5,31.4,11.4,1.7,2.7,1.7,6.1.2,8.8s-4.5,4.4-7.6,4.4-6.1-1.8-7.6-4.6c-2.1-3.6-6.5-5.3-10.5-3.8s-6.3,5.5-5.6,9.6,4.3,7.2,8.5,7.2c14.4,0,26,11.7,26,26s-11.7,26-26,26h0v.2Z"/>
      </g>
    </g>
  </g>
</svg>