<svg height="512" viewBox="0 0 48 48" width="512" xmlns="http://www.w3.org/2000/svg"><g id="_31_-_40" data-name="31 - 40"><g id="Math"><rect fill="#00cf66" height="40" rx="5" width="40" x="4" y="4"/><path d="m24 24v20h-15a5 5 0 0 1 -5-5v-15z" fill="#fd3730"/><path d="m44 24v15a5 5 0 0 1 -5 5h-15v-20z" fill="#009ae0"/><path d="m44 9v15h-20v-20h15a5 5 0 0 1 5 5z" fill="#fac100"/><path d="m4 20h20v4h-20z" fill="#00b157"/><path d="m9 44h15v-4h-19.9a5 5 0 0 0 4.9 4z" fill="#d3241f"/><path d="m43.9 40h-19.9v4h15a5 5 0 0 0 4.9-4z" fill="#0081bd"/><path d="m24 20h20v4h-20z" fill="#ff9500"/><g fill="#eaeff0"><path d="m17.5 13h-2.5v-2.5a1 1 0 0 0 -2 0v2.5h-2.5a1 1 0 0 0 0 2h2.5v2.5a1 1 0 0 0 2 0v-2.5h2.5a1 1 0 0 0 0-2z"/><path d="m17.182 30.818a1 1 0 0 0 -1.414 0l-1.768 1.768-1.768-1.768a1 1 0 1 0 -1.414 1.414l1.768 1.768-1.768 1.768a1 1 0 1 0 1.414 1.414l1.768-1.768 1.768 1.768a1 1 0 1 0 1.414-1.414l-1.768-1.768 1.768-1.768a1 1 0 0 0 0-1.414z"/><path d="m30.5 15h7a1 1 0 0 0 0-2h-7a1 1 0 0 0 0 2z"/><path d="m37.5 31h-7a1 1 0 0 0 0 2h7a1 1 0 0 0 0-2z"/><path d="m37.5 35h-7a1 1 0 0 0 0 2h7a1 1 0 0 0 0-2z"/></g></g></g></svg>