<?xml version="1.0" encoding="UTF-8"?>
<svg id="Layer_1" xmlns="http://www.w3.org/2000/svg" version="1.1" viewBox="0 0 237 237">
  <!-- Generator: Adobe Illustrator 29.1.0, SVG Export Plug-In . SVG Version: 2.1.0 Build 142)  -->
  <defs>
    <style>
      .st0 {
        fill: #fff;
      }

      .st1 {
        fill: #d10;
      }
    </style>
  </defs>
  <path class="st1" d="M209,150l-27-31,27-31-40-8,4-41-37,16-21-35-21,35-37-16,4,41-40,8,27,31-27,31,40,8-4,41,37-16,21,35,21-35,37,16-4-41"/>
  <path class="st0" d="M138,88s-9,6-23,6-22-6-22-6c0,0,2,10-1,23-3,8-7,14-13,19,0,0,12,2,21,8,9,7,15,19,15,19,0,0,5-12,14-18,9-7,22-8,22-8,0,0-9-11-13-20-4-10,0-23,0-23ZM125,132c-6,4-10,11-10,11l-10-11-13-5s5-7,7-14c2-4,2-9,2-14,0,0,7,3,14,3s14-3,14-3c0,0-2,8,1,15,2,6,8,13,8,13l-13,5ZM153,105c-2-7,5-45,5-45,0,0-26,18-44,18s-42-18-42-18c0,0,8,27,3,45-4,17-29,37-29,37,0,0,32,1,44,10,13,8,25,40,25,40,0,0,16-35,23-40s46-11,46-11c0,0-28-28-31-36ZM134,146c-13,8-19,28-19,28,0,0-10-22-20-29s-32-9-32-9c0,0,17-14,21-28,4-13-1-33-1-33,0,0,18,11,31,11s33-11,33-11c0,0-6,21-1,33,4,13,21,28,21,28,0,0-20,1-33,10"/>
</svg>