<?xml version="1.0" encoding="UTF-8"?>
<svg id="Layer_1" data-name="Layer 1" xmlns="http://www.w3.org/2000/svg" viewBox="0 -234.65 612.38 612.38">
  <defs>
    <style>
      .cls-1 {
        fill: #055faa;
      }
    </style>
  </defs>
  <path class="cls-1" d="M520.45,143.07l39.17-108.02s-29.28,0-58.56,5.88l-37.03,102.14h56.42s0,0,0,0ZM513.76,5.88l-7.52,20.75c29.46-5.88,58.55-5.88,58.55-5.88l7.52-20.74s-29.27,0-58.55,5.88h0ZM302.36,137.2c19.89,3.85,40.44,5.88,61.47,5.88h0c33.37,0,47.08-3.32,64.39-12.15,14.75-7.54,24.44-15.55,28.61-29.33,3.57-11.81-.99-22.96-11.58-30.05-10.59-7.09-20.85-10.44-33.02-17.16-10.66-5.87-16.46-10.3-15.75-16.46,1.49-12.92,15.31-17.18,34.34-17.18s36.7,1.68,54.31,4.89l7.17-19.75c-19.89-3.85-40.45-5.88-61.48-5.88-33.37,0-47.08,3.32-64.39,12.16-14.75,7.54-24.45,15.54-28.61,29.33-3.57,11.81.99,22.95,11.59,30.04,10.58,7.09,20.83,10.45,33.02,17.18,10.65,5.87,16.46,10.29,15.74,16.45-1.5,12.93-15.31,17.16-34.34,17.16h0c-18.54,0-36.69-1.67-54.31-4.89l-7.16,19.76h0ZM280.89,143.07l36.31-100.16c2.95-8.12,3.14-22.75-5.01-30.75C304.03,4.14,294.31,0,276.34,0c-17.97,0-32.55,4.71-44.27,9.3-6.3,2.45-15.66,7.25-26.24,13.66-1.02-4.06-2.89-7.87-5.87-10.8C191.79,4.14,182.07,0,164.11,0c-17.97,0-32.55,4.71-44.27,9.3-6.3,2.45-15.66,7.25-26.24,13.66-1.02-4.06-2.89-7.87-5.87-10.8C79.56,4.15,69.84,0,51.87,0L0,143.08h56.42l25.94-71.55c4.7-12.98,17.5-25.33,24.52-30.76,8.94-6.9,48.92-17.89,38.03,12.16l-32.68,90.14h56.43l25.94-71.55c4.71-12.97,17.5-25.32,24.52-30.74,8.94-6.9,48.92-17.89,38.03,12.16l-32.68,90.14h56.42Z"/>
  <path class="cls-1" d="M599.02,2.09h-3.38v8.71h-2.78V2.09h-3.38V0h9.54v2.09s0,0,0,0ZM612.38,10.8h-2.78V3.57l-2,4.69h-1.91l-2-4.69v7.23h-2.62V0h3.22l2.43,5.41L609.13,0h3.25v10.8h0,0Z"/>
</svg>