<?xml version="1.0" encoding="UTF-8"?>
<svg id="svg4401" xmlns="http://www.w3.org/2000/svg" xmlns:xlink="http://www.w3.org/1999/xlink" xmlns:v="http://schemas.microsoft.com/visio/2003/SVGExtensions/" xmlns:svg="http://www.w3.org/2000/svg" xmlns:sodipodi="http://sodipodi.sourceforge.net/DTD/sodipodi-0.dtd" xmlns:inkscape="http://www.inkscape.org/namespaces/inkscape" version="1.1" viewBox="0 0 469.8 469.8">
  <!-- Generator: Adobe Illustrator 29.1.0, SVG Export Plug-In . SVG Version: 2.1.0 Build 142)  -->
  <defs>
    <style>
      .st0 {
        fill: #3854a2;
      }

      .st1 {
        fill: url(#linear-gradient);
      }

      .st2 {
        fill: #fff;
      }
    </style>
    <linearGradient id="linear-gradient" x1="8.3" y1="-225.5" x2="8.3" y2="-91.9" gradientTransform="translate(-183.9 251.6) rotate(-90) scale(2 -2)" gradientUnits="userSpaceOnUse">
      <stop offset="0" stop-color="#35509d"/>
      <stop offset="1" stop-color="#3b58a7"/>
    </linearGradient>
  </defs>
  <sodipodi:namedview id="namedview4403" bordercolor="#000000" borderopacity="0.25" inkscape:current-layer="g19301" inkscape:cx="-163.84183" inkscape:cy="628.28604" inkscape:deskcolor="#d1d1d1" inkscape:document-units="mm" inkscape:pagecheckerboard="0" inkscape:pageopacity="0.0" inkscape:showpageshadow="2" inkscape:window-height="1009" inkscape:window-maximized="1" inkscape:window-width="1920" inkscape:window-x="-8" inkscape:window-y="-8" inkscape:zoom="0.36925856" pagecolor="#ffffff" showgrid="false"/>
  <g id="layer1" inkscape:groupmode="layer" inkscape:label="Layer 1">
    <g id="g19301">
      <g id="shape323-118">
        <v:userDefs>
          <v:ud v:nameU="visVersion" v:val="VT0(15):26"/>
        </v:userDefs>
        <rect id="rect355" class="st2" x="193.5" y="67.8" width="267.3" height="337.6"/>
      </g>
      <g id="shape247-120">
        <path id="path360" class="st0" d="M180.1,56.5c-10.5,0-19,8.4-19,18.9v318.9c0,10.5,8.5,18.9,19,18.9h270.8c10.5,0,19-8.4,19-18.9V75.4c0-10.5-8.5-18.9-19-18.9H180.1ZM176.3,72.1h278.2v325.2H176.3V72.1Z"/>
      </g>
      <g id="group269-122">
        <g id="shape265-123">
          <v:userDefs>
            <v:ud v:nameU="CTypeTopLeftSnip" v:prompt="" v:val="VT0(0):5"/>
            <v:ud v:nameU="CTypeTopRightSnip" v:prompt="" v:val="VT0(0):5"/>
            <v:ud v:nameU="CTypeBotLeftSnip" v:prompt="" v:val="VT0(0):5"/>
            <v:ud v:nameU="CTypeBotRightSnip" v:prompt="" v:val="VT0(0):5"/>
            <v:ud v:nameU="CornerLockHoriz" v:prompt="" v:val="VT0(1):5"/>
            <v:ud v:nameU="CornerLockVert" v:prompt="" v:val="VT0(1):5"/>
            <v:ud v:nameU="CornerLockDiag" v:prompt="" v:val="VT0(0):5"/>
            <v:ud v:nameU="TopLeftOffset" v:prompt="" v:val="VT0(0.15):1"/>
            <v:ud v:nameU="TopRightOffset" v:prompt="" v:val="VT0(0.15):1"/>
            <v:ud v:nameU="BotLeftOffset" v:prompt="" v:val="VT0(0.15):1"/>
            <v:ud v:nameU="BotRightOffset" v:prompt="" v:val="VT0(0.15):1"/>
            <v:ud v:nameU="visVersion" v:prompt="" v:val="VT0(15):26"/>
            <v:ud v:nameU="TopLeftOffset" v:prompt="" v:val="VT0(0.061224539143557):1"/>
            <v:ud v:nameU="TopRightOffset" v:prompt="" v:val="VT0(0.061224539143557):1"/>
            <v:ud v:nameU="BotLeftOffset" v:prompt="" v:val="VT0(0.061224539143557):1"/>
            <v:ud v:nameU="BotRightOffset" v:prompt="" v:val="VT0(0.061224539143557):1"/>
          </v:userDefs>
          <path id="path367" class="st0" d="M224.4,313.6h149.9c4.9,0,8.8-3.9,8.8-8.8h0v-151c0-4.9-3.9-8.8-8.8-8.8h-149.9c-4.9,0-8.8,3.9-8.8,8.8,0,0,0,0,0,0v151c0,4.9,3.9,8.8,8.8,8.8h0Z"/>
        </g>
        <g id="shape266-125">
          <v:userDefs>
            <v:ud v:nameU="visVersion" v:val="VT0(15):26"/>
          </v:userDefs>
          <rect id="rect372" class="st2" x="233.6" y="163.4" width="131.9" height="132.9"/>
        </g>
      </g>
      <g id="group268-127">
        <g id="shape264-128">
          <v:userDefs>
            <v:ud v:nameU="CTypeTopLeftSnip" v:prompt="" v:val="VT0(0):5"/>
            <v:ud v:nameU="CTypeTopRightSnip" v:prompt="" v:val="VT0(0):5"/>
            <v:ud v:nameU="CTypeBotLeftSnip" v:prompt="" v:val="VT0(0):5"/>
            <v:ud v:nameU="CTypeBotRightSnip" v:prompt="" v:val="VT0(0):5"/>
            <v:ud v:nameU="CornerLockHoriz" v:prompt="" v:val="VT0(1):5"/>
            <v:ud v:nameU="CornerLockVert" v:prompt="" v:val="VT0(1):5"/>
            <v:ud v:nameU="CornerLockDiag" v:prompt="" v:val="VT0(0):5"/>
            <v:ud v:nameU="TopLeftOffset" v:prompt="" v:val="VT0(0.15):1"/>
            <v:ud v:nameU="TopRightOffset" v:prompt="" v:val="VT0(0.15):1"/>
            <v:ud v:nameU="BotLeftOffset" v:prompt="" v:val="VT0(0.15):1"/>
            <v:ud v:nameU="BotRightOffset" v:prompt="" v:val="VT0(0.15):1"/>
            <v:ud v:nameU="visVersion" v:prompt="" v:val="VT0(15):26"/>
            <v:ud v:nameU="TopLeftOffset" v:prompt="" v:val="VT0(0.060168943641077):1"/>
            <v:ud v:nameU="TopRightOffset" v:prompt="" v:val="VT0(0.060168943641077):1"/>
            <v:ud v:nameU="BotLeftOffset" v:prompt="" v:val="VT0(0.060168943641077):1"/>
            <v:ud v:nameU="BotRightOffset" v:prompt="" v:val="VT0(0.060168943641077):1"/>
          </v:userDefs>
          <path id="path380" class="st0" d="M234.3,359.9h88.1c4.8,0,8.7-3.9,8.7-8.7,0,0,0,0,0,0v-90.6c0-4.8-3.9-8.7-8.7-8.7h-88.1c-4.8,0-8.7,3.9-8.7,8.7,0,0,0,0,0,0v90.6c0,4.8,3.9,8.7,8.7,8.7h0Z"/>
        </g>
        <g id="shape263-130">
          <v:userDefs>
            <v:ud v:nameU="visVersion" v:val="VT0(15):26"/>
          </v:userDefs>
          <rect id="rect385" class="st2" x="241.5" y="268.3" width="73.7" height="73.7"/>
        </g>
      </g>
      <g id="group267-132">
        <g id="shape259-133">
          <path id="path393" class="st0" d="M309.4,154.7l65,65.3,59.2-59.2c3.3-3.1,3.4-8.3.3-11.6,0,0-.2-.2-.3-.3l-54.9-54.9c-1.4-2-4.2-2.5-6.2-1-.4.3-.8.6-1,1l-62.1,60.7Z"/>
        </g>
        <g id="shape261-135">
          <v:userDefs>
            <v:ud v:nameU="visVersion" v:val="VT0(15):26"/>
          </v:userDefs>
          <rect id="rect398" class="st2" x="342.9" y="123.8" width="64.1" height="62.5" transform="translate(.2 310.6) rotate(-45)"/>
        </g>
      </g>
      <path id="path439" class="st1" d="M267.3,456.6V13.2L0,57.5v354.8l267.3,44.4Z"/>
      <g id="shape274-232">
        <path id="path590" class="st2" d="M62.6,161.8l40.1,147.8,30.4,1.8,45-156.5-31.8,1.9-26.9,113.5-1.1,5.8c.1-2.5,0-5.1-.7-7.6l-26.2-108.4-28.8,1.7Z"/>
      </g>
    </g>
  </g>
</svg>