<svg id="Layer_4" viewBox="0 0 512 512" xmlns="http://www.w3.org/2000/svg" data-name="Layer 4"><path d="m406.74 334.34v79.79a36.89 36.89 0 0 1 -36.85 36.87h-227.78a36.89 36.89 0 0 1 -36.85-36.86v-79.8a5 5 0 0 1 5-5h291.48a5 5 0 0 1 5 5z" fill="#3fa2f6"/><path d="m321.09 62.1a5.14 5.14 0 0 0 -1.67-.87 4.77 4.77 0 0 1 1.67.87z" fill="#0f67b1"/><path d="m406.53 148.35a5.17 5.17 0 0 0 -.92-1.73 5 5 0 0 1 .92 1.73z" fill="#0f67b1"/><path d="m406.74 149.79v184.55a5 5 0 0 0 -5-5h-291.48a5 5 0 0 0 -5 5v-236.47a36.9 36.9 0 0 1 36.85-36.87h176a5.44 5.44 0 0 0 -1.13.09 4.72 4.72 0 0 0 -.95.29 5 5 0 0 0 -3.03 4.62v51.91a36.9 36.9 0 0 0 36.86 36.85h51.91a5 5 0 0 0 5-5z" fill="#0f67b1"/><path d="" fill="#0f67b1"/><path d="m318.94 61.11a5.36 5.36 0 0 0 -.7-.09 5.36 5.36 0 0 1 .7.09z" fill="#0f67b1"/><path d="m406.74 149.79a5 5 0 0 1 -5 5h-51.91a36.9 36.9 0 0 1 -36.83-36.86v-51.93a5 5 0 0 1 3.09-4.62 4.94 4.94 0 0 1 2.88-.29 4.21 4.21 0 0 1 .48.12 5.14 5.14 0 0 1 1.67.87c.14.12.29.25.42.38l83.76 83.77a3.8 3.8 0 0 1 .33.37 5.17 5.17 0 0 1 .92 1.73c0 .15.08.3.11.45s.05.27.07.41a5.63 5.63 0 0 1 .01.6z" fill="#3fa2f6"/><g fill="#fff"><path d="m351.65 287.16h-99.2a5 5 0 0 1 0-10h99.2a5 5 0 0 1 0 10z"/><path d="m221.21 287.16h-60.85a5 5 0 0 1 0-10h60.85a5 5 0 0 1 0 10z"/><path d="m351.65 246.17h-29.58a5 5 0 0 1 0-10h29.58a5 5 0 0 1 0 10z"/><path d="m290.84 246.17h-130.48a5 5 0 0 1 0-10h130.48a5 5 0 0 1 0 10z"/><path d="m351.65 205.18h-130.44a5 5 0 1 1 0-10h130.44a5 5 0 0 1 0 10z"/><path d="m190 205.18h-29.64a5 5 0 0 1 0-10h29.64a5 5 0 0 1 0 10z"/><path d="m238.14 164.18h-77.78a5 5 0 0 1 0-10h77.78a5 5 0 0 1 0 10z"/><path d="m293.22 164.18h-23.85a5 5 0 0 1 0-10h23.85a5 5 0 0 1 0 10z"/><path d="m174.38 123.19h-14a5 5 0 0 1 0-10h14a5 5 0 0 1 0 10z"/><path d="m279.75 123.19h-74.14a5 5 0 0 1 0-10h74.14a5 5 0 0 1 0 10z"/><path d="m185.75 395.34-13.1-39.59a1.55 1.55 0 0 1 1.47-2h8.88a1.55 1.55 0 0 1 1.49 1.11l7.51 25.62h.21l7.49-25.65a1.54 1.54 0 0 1 1.48-1.11h7.82a1.54 1.54 0 0 1 1.47 2l-13.1 39.59a1.61 1.61 0 0 0 -.07.49v29.23a1.55 1.55 0 0 1 -1.55 1.55h-8.36a1.54 1.54 0 0 1 -1.55-1.55v-29.2a1.62 1.62 0 0 0 -.09-.49z"/><path d="m221.72 353.72h12.88a1.55 1.55 0 0 1 1.53 1.3l11.37 69.79a1.55 1.55 0 0 1 -1.53 1.8h-8.29a1.53 1.53 0 0 1 -1.53-1.33l-1.9-13.14v.21h-11.67a1.55 1.55 0 0 0 -1.54 1.32l-1.69 11.62a1.55 1.55 0 0 1 -1.54 1.32h-7.46a1.54 1.54 0 0 1 -1.52-1.8l11.36-69.81a1.55 1.55 0 0 1 1.53-1.28zm9.4 48.73a1.54 1.54 0 0 0 1.53-1.76l-4.85-34.27h-.21l-4.75 34.27a1.54 1.54 0 0 0 1.53 1.76z"/><path d="m254.86 353.72h13.45a1.54 1.54 0 0 1 1.53 1.33l7.16 50.84h.21l7.1-50.84a1.55 1.55 0 0 1 1.53-1.33h13.46a1.54 1.54 0 0 1 1.54 1.55v69.79a1.54 1.54 0 0 1 -1.54 1.55h-7.74a1.55 1.55 0 0 1 -1.55-1.55v-53.64h-.2l-8.14 53.87a1.54 1.54 0 0 1 -1.53 1.32h-6.91a1.54 1.54 0 0 1 -1.53-1.32l-8.14-53.87h-.2v53.64a1.55 1.55 0 0 1 -1.55 1.55h-6.9a1.54 1.54 0 0 1 -1.55-1.55v-69.79a1.54 1.54 0 0 1 1.5-1.55z"/><path d="m310.88 353.72h8.36a1.55 1.55 0 0 1 1.55 1.55v59.38a1.55 1.55 0 0 0 1.55 1.55h15.75a1.55 1.55 0 0 1 1.55 1.55v7.31a1.55 1.55 0 0 1 -1.55 1.55h-27.21a1.55 1.55 0 0 1 -1.55-1.55v-69.79a1.55 1.55 0 0 1 1.55-1.55z"/><path d="m185.75 395.34-13.1-39.59a1.55 1.55 0 0 1 1.47-2h8.88a1.55 1.55 0 0 1 1.49 1.11l7.51 25.62h.21l7.49-25.65a1.54 1.54 0 0 1 1.48-1.11h7.82a1.54 1.54 0 0 1 1.47 2l-13.1 39.59a1.61 1.61 0 0 0 -.07.49v29.23a1.55 1.55 0 0 1 -1.55 1.55h-8.36a1.54 1.54 0 0 1 -1.55-1.55v-29.2a1.62 1.62 0 0 0 -.09-.49z"/><path d="m221.72 353.72h12.88a1.55 1.55 0 0 1 1.53 1.3l11.37 69.79a1.55 1.55 0 0 1 -1.53 1.8h-8.29a1.53 1.53 0 0 1 -1.53-1.33l-1.9-13.14v.21h-11.67a1.55 1.55 0 0 0 -1.54 1.32l-1.69 11.62a1.55 1.55 0 0 1 -1.54 1.32h-7.46a1.54 1.54 0 0 1 -1.52-1.8l11.36-69.81a1.55 1.55 0 0 1 1.53-1.28zm9.4 48.73a1.54 1.54 0 0 0 1.53-1.76l-4.85-34.27h-.21l-4.75 34.27a1.54 1.54 0 0 0 1.53 1.76z"/><path d="m254.86 353.72h13.45a1.54 1.54 0 0 1 1.53 1.33l7.16 50.84h.21l7.1-50.84a1.55 1.55 0 0 1 1.53-1.33h13.46a1.54 1.54 0 0 1 1.54 1.55v69.79a1.54 1.54 0 0 1 -1.54 1.55h-7.74a1.55 1.55 0 0 1 -1.55-1.55v-53.64h-.2l-8.14 53.87a1.54 1.54 0 0 1 -1.53 1.32h-6.91a1.54 1.54 0 0 1 -1.53-1.32l-8.14-53.87h-.2v53.64a1.55 1.55 0 0 1 -1.55 1.55h-6.9a1.54 1.54 0 0 1 -1.55-1.55v-69.79a1.54 1.54 0 0 1 1.5-1.55z"/><path d="m310.88 353.72h8.36a1.55 1.55 0 0 1 1.55 1.55v59.38a1.55 1.55 0 0 0 1.55 1.55h15.75a1.55 1.55 0 0 1 1.55 1.55v7.31a1.55 1.55 0 0 1 -1.55 1.55h-27.21a1.55 1.55 0 0 1 -1.55-1.55v-69.79a1.55 1.55 0 0 1 1.55-1.55z"/></g></svg>